<svg width="223" height="109" viewBox="0 0 223 109" fill="none" xmlns="http://www.w3.org/2000/svg">
<path d="M21.2216 87H2.04545L23.6506 21.5455H47.9403L69.5455 87H50.3693L36.0511 39.571H35.5398L21.2216 87ZM17.642 61.1761H53.6932V74.4716H17.642V61.1761ZM136.849 35.8636V21.5455H193.738V35.8636H174.051V87H156.536V35.8636H136.849ZM218.196 21.5455V87H200.426V21.5455H218.196Z" fill="white"/>
<path d="M74.3715 21.5455L74.3715 87H89.201L112.852 52.6108H113.235L113.235 87H131.005L131.005 21.5455L115.92 21.5455L92.6527 55.8068L92.1413 55.8068L92.1413 21.5455L74.3715 21.5455Z" fill="white"/>
</svg>
