<svg width="227" height="67" viewBox="0 0 227 67" fill="none" xmlns="http://www.w3.org/2000/svg">
<path d="M19.5426 66H0.234375V15.8182H19.3466C24.5085 15.8182 28.968 16.8228 32.7251 18.832C36.4986 20.8249 39.4063 23.6999 41.4482 27.457C43.5064 31.1978 44.5355 35.6818 44.5355 40.9091C44.5355 46.1364 43.5146 50.6286 41.4727 54.3857C39.4308 58.1264 36.5394 61.0014 32.7987 63.0107C29.0579 65.0036 24.6392 66 19.5426 66ZM13.858 54.4347H19.0526C21.5355 54.4347 23.6509 54.0344 25.3988 53.234C27.163 52.4336 28.5025 51.0533 29.4173 49.093C30.3484 47.1328 30.8139 44.4048 30.8139 40.9091C30.8139 37.4134 30.3402 34.6854 29.3928 32.7251C28.4616 30.7649 27.0895 29.3846 25.2763 28.5842C23.4794 27.7837 21.2741 27.3835 18.6605 27.3835H13.858V54.4347ZM51.0349 66V58.4531L74.7536 26.7955H51.1329V15.8182H92.1017V23.3651L68.3829 55.0227H92.0036V66H51.0349ZM145.003 40.9091C145.003 46.4957 143.917 51.2085 141.744 55.0472C139.572 58.8697 136.64 61.7692 132.948 63.7457C129.256 65.706 125.14 66.6861 120.598 66.6861C116.025 66.6861 111.892 65.6978 108.2 63.7212C104.525 61.7283 101.601 58.8207 99.428 54.9982C97.2718 51.1594 96.1936 46.4631 96.1936 40.9091C96.1936 35.3224 97.2718 30.6179 99.428 26.7955C101.601 22.9567 104.525 20.0572 108.2 18.0969C111.892 16.1204 116.025 15.1321 120.598 15.1321C125.14 15.1321 129.256 16.1204 132.948 18.0969C136.64 20.0572 139.572 22.9567 141.744 26.7955C143.917 30.6179 145.003 35.3224 145.003 40.9091ZM130.988 40.9091C130.988 37.9034 130.587 35.3714 129.787 33.3132C129.003 31.2386 127.835 29.6705 126.283 28.6087C124.748 27.5305 122.853 26.9915 120.598 26.9915C118.344 26.9915 116.441 27.5305 114.889 28.6087C113.354 29.6705 112.186 31.2386 111.385 33.3132C110.601 35.3714 110.209 37.9034 110.209 40.9091C110.209 43.9148 110.601 46.4549 111.385 48.5295C112.186 50.5877 113.354 52.1559 114.889 53.234C116.441 54.2958 118.344 54.8267 120.598 54.8267C122.853 54.8267 124.748 54.2958 126.283 53.234C127.835 52.1559 129.003 50.5877 129.787 48.5295C130.587 46.4549 130.988 43.9148 130.988 40.9091ZM151.307 66V15.8182H164.93V55.0227H185.219V66H151.307ZM190.726 66V15.8182H226.892V26.7955H204.349V35.4205H225.03V46.3977H204.349V55.0227H226.794V66H190.726ZM204.447 11.1136L209.152 0.136361H220.717L213.366 11.1136H204.447Z" fill="#241F1F"/>
</svg>
