<svg width="291" height="140" viewBox="0 0 291 140" fill="none" xmlns="http://www.w3.org/2000/svg">
<rect width="111.519" height="18.3033" transform="matrix(-0.020381 -0.999792 0.999485 -0.0320777 20.0494 112.286)" fill="white"/>
<rect width="111.519" height="22.2825" transform="matrix(-0.020381 -0.999792 0.999485 -0.0320777 15.2729 112.211)" fill="white"/>
<rect width="111.519" height="22.2825" transform="matrix(-0.020381 -0.999792 0.999485 -0.0320777 44.2729 112.211)" fill="white"/>
<rect width="111.519" height="18.3033" transform="matrix(-0.020381 -0.999792 0.999485 -0.0320777 45.2729 112.083)" fill="white"/>
<rect x="80.5439" y="34.3456" width="88.8885" height="18.2999" transform="rotate(140.094 80.5439 34.3456)" fill="#1C1C1C"/>
<path d="M142.158 48.3C142.825 48.3 143.402 48.5427 143.887 49.028C144.372 49.5133 144.615 50.0897 144.615 50.757V109.543C144.615 110.21 144.372 110.787 143.887 111.272C143.402 111.757 142.825 112 142.158 112H127.507C126.051 112 124.838 111.363 123.867 110.089L104.029 84.791V109.543C104.029 110.21 103.786 110.787 103.301 111.272C102.816 111.757 102.239 112 101.572 112H84.646C83.9787 112 83.4023 111.757 82.917 111.272C82.4317 110.787 82.189 110.21 82.189 109.543V50.757C82.189 50.0897 82.4317 49.5133 82.917 49.028C83.4023 48.5427 83.9787 48.3 84.646 48.3H99.388C100.844 48.3 102.027 48.9067 102.937 50.12L122.775 77.511V50.757C122.775 50.0897 123.018 49.5133 123.503 49.028C123.988 48.5427 124.565 48.3 125.232 48.3H142.158ZM214.194 48.3C214.862 48.3 215.438 48.5427 215.923 49.028C216.409 49.5133 216.651 50.0897 216.651 50.757V65.408C216.651 66.0753 216.409 66.6517 215.923 67.137C215.438 67.6223 214.862 67.865 214.194 67.865H194.629V109.543C194.629 110.21 194.387 110.787 193.901 111.272C193.416 111.757 192.84 112 192.172 112H173.426C172.759 112 172.183 111.757 171.697 111.272C171.212 110.787 170.969 110.21 170.969 109.543V67.865H151.404C150.737 67.865 150.161 67.6223 149.675 67.137C149.19 66.6517 148.947 66.0753 148.947 65.408V50.757C148.947 50.0897 149.19 49.5133 149.675 49.028C150.161 48.5427 150.737 48.3 151.404 48.3H214.194ZM264.3 93.345H280.771C281.438 93.345 282.015 93.5877 282.5 94.073C282.985 94.5583 283.228 95.1347 283.228 95.802V109.543C283.228 110.21 282.985 110.787 282.5 111.272C282.015 111.757 281.438 112 280.771 112H223.077C222.41 112 221.833 111.757 221.348 111.272C220.863 110.787 220.62 110.21 220.62 109.543V95.802C220.62 95.1347 220.863 94.5583 221.348 94.073C221.833 93.5877 222.41 93.345 223.077 93.345H239.73V66.955H223.077C222.41 66.955 221.833 66.7123 221.348 66.227C220.863 65.7417 220.62 65.1653 220.62 64.498V50.757C220.62 50.0897 220.863 49.5133 221.348 49.028C221.833 48.5427 222.41 48.3 223.077 48.3H280.771C281.438 48.3 282.015 48.5427 282.5 49.028C282.985 49.5133 283.228 50.0897 283.228 50.757V64.498C283.228 65.1653 282.985 65.7417 282.5 66.227C282.015 66.7123 281.438 66.955 280.771 66.955H264.3V93.345Z" fill="white"/>
</svg>
